<svg width="396" height="68" viewBox="0 0 396 68" fill="none" xmlns="http://www.w3.org/2000/svg">
<path fill-rule="evenodd" clip-rule="evenodd" d="M21.5189 4L21.5189 43.767H0L21.5189 4ZM42.9563 43.6163V43.767H43.0378L42.9563 43.6163Z" fill="#F6F6F6"/>
<path fill-rule="evenodd" clip-rule="evenodd" d="M21.6004 4H21.6004L43.1194 43.767H21.6004V4ZM0.162991 43.6165V43.767H0.081543L0.162991 43.6165Z" fill="#0B0803"/>
<path fill-rule="evenodd" clip-rule="evenodd" d="M48.6357 24.0641L86.1471 23.8926C85.3152 12.7835 77.0688 4.11191 67.1335 4.2375C57.2885 4.36194 49.3179 13.0797 48.6357 24.0641Z" fill="#F6F6F6"/>
<path fill-rule="evenodd" clip-rule="evenodd" d="M48.6239 24.1168L86.137 23.8126C85.4455 34.9309 77.308 43.7063 67.3708 43.7068C57.524 43.7072 49.4436 35.0913 48.6239 24.1168Z" fill="#0B0803"/>
<path d="M144.116 34.2043H128.467L124.333 43.767H117.542L136.557 1.37786H136.97L155.986 43.767H148.072L144.116 34.2043ZM141.813 28.612L136.439 15.7499L130.888 28.612H141.813Z" fill="#3038FF"/>
<path d="M170.467 25.5922C171.136 24.3247 172.081 23.1876 173.301 22.181C174.522 21.1744 175.762 20.4101 177.022 19.8881C178.321 19.3289 179.404 19.0493 180.27 19.0493L179.974 25.3126C178.163 25.1635 176.549 25.4804 175.132 26.2633C173.715 27.0089 172.612 28.0528 171.825 29.3949C171.038 30.6998 170.644 32.0979 170.644 33.5891V43.767H164.03V20.1118H169.994L170.467 25.5922Z" fill="#3038FF"/>
<path d="M195.721 20.1118V43.767H189.107V20.1118H195.721ZM188.812 11.6676C188.812 10.7355 189.205 9.95261 189.993 9.31883C190.78 8.64776 191.666 8.31223 192.65 8.31223C193.595 8.31223 194.441 8.64776 195.189 9.31883C195.977 9.95261 196.371 10.7355 196.371 11.6676C196.371 12.5996 195.977 13.3825 195.189 14.0163C194.441 14.6501 193.595 14.967 192.65 14.967C191.666 14.967 190.78 14.6501 189.993 14.0163C189.205 13.3825 188.812 12.5996 188.812 11.6676Z" fill="#3038FF"/>
<path d="M233.021 20.1118V43.767H226.407V40.3557C225.501 41.3623 224.281 42.2944 222.745 43.1518C221.21 43.972 219.419 44.3821 217.372 44.3821C214.97 44.3821 212.824 43.9161 210.935 42.9841C209.045 42.0148 207.549 40.5981 206.447 38.734C205.344 36.8699 204.793 34.6144 204.793 31.9674C204.793 29.3949 205.364 27.1394 206.506 25.2008C207.647 23.2248 209.163 21.7149 211.053 20.6711C212.982 19.5899 215.088 19.0493 217.372 19.0493C221.427 19.0493 224.458 20.466 226.466 23.2994L226.938 20.1118H233.021ZM219.202 39.2373C221.013 39.2373 222.529 38.8085 223.749 37.9511C225.009 37.0563 225.895 35.8074 226.407 34.2043V29.0594C225.934 27.6054 225.009 26.4311 223.631 25.5363C222.293 24.6415 220.738 24.1942 218.966 24.1942C216.879 24.1942 215.108 24.9025 213.651 26.3192C212.194 27.6986 211.466 29.4695 211.466 31.6318C211.466 33.0485 211.82 34.3348 212.529 35.4905C213.238 36.6462 214.183 37.5596 215.364 38.2307C216.545 38.9017 217.824 39.2373 219.202 39.2373Z" fill="#3038FF"/>
<path d="M250.912 23.4672C250.912 19.739 251.896 16.2905 253.865 13.1215C255.833 9.91533 258.491 7.36155 261.837 5.46019C265.223 3.55883 268.904 2.60815 272.88 2.60815C276.817 2.60815 280.459 3.55883 283.805 5.46019C287.191 7.36155 289.888 9.91533 291.895 13.1215C293.903 16.3278 294.907 19.7763 294.907 23.4672C294.907 27.2326 293.903 30.6998 291.895 33.8687C289.927 37.0377 287.25 39.5542 283.864 41.4182C280.478 43.2823 276.817 44.2144 272.88 44.2144C268.904 44.2144 265.223 43.301 261.837 41.4742C258.491 39.6101 255.833 37.0936 253.865 33.9247C251.896 30.7557 250.912 27.2699 250.912 23.4672ZM257.999 23.4672C257.999 26.1142 258.668 28.5375 260.006 30.7371C261.345 32.9367 263.156 34.6889 265.439 35.9938C267.762 37.2986 270.301 37.9511 273.057 37.9511C275.774 37.9511 278.254 37.3173 280.498 36.0497C282.742 34.7448 284.514 32.9926 285.813 30.793C287.151 28.5561 287.821 26.1142 287.821 23.4672C287.821 20.8202 287.151 18.3782 285.813 16.1414C284.474 13.9045 282.663 12.1336 280.38 10.8287C278.097 9.52388 275.597 8.87145 272.88 8.87145C270.124 8.87145 267.605 9.52388 265.321 10.8287C263.077 12.1336 261.286 13.9045 259.947 16.1414C258.648 18.3782 257.999 20.8202 257.999 23.4672Z" fill="#3038FF"/>
<path d="M312.297 44.2703C310.368 44.2703 308.537 43.9534 306.805 43.3196C305.112 42.6485 303.714 41.7165 302.612 40.5235L305.387 37.0004C307.474 38.939 309.6 39.9083 311.765 39.9083C312.946 39.9083 313.911 39.7033 314.659 39.2932C315.446 38.8458 315.84 38.1934 315.84 37.3359C315.84 36.4412 315.446 35.7701 314.659 35.3227C313.871 34.8753 312.986 34.5212 312.001 34.2602C311.057 33.9619 310.446 33.7755 310.171 33.701C308.005 33.0672 306.391 32.1538 305.328 30.9608C304.265 29.7305 303.734 28.2951 303.734 26.6548C303.734 25.3499 304.068 24.1382 304.738 23.0198C305.446 21.8641 306.49 20.932 307.868 20.2237C309.285 19.5153 310.997 19.1612 313.005 19.1612C314.895 19.1612 316.529 19.3662 317.907 19.7763C319.324 20.1864 320.643 20.8388 321.863 21.7336L319.324 25.4804C318.615 24.8466 317.749 24.3433 316.726 23.9705C315.741 23.5977 314.836 23.4113 314.009 23.4113C312.986 23.4113 312.139 23.6349 311.47 24.0823C310.801 24.5297 310.466 25.1076 310.466 25.8159C310.427 26.6734 310.761 27.3258 311.47 27.7732C312.179 28.1833 313.32 28.6307 314.895 29.1153C315.564 29.3017 315.997 29.4322 316.194 29.5068C318.163 30.1033 319.698 30.9421 320.8 32.0233C321.903 33.0672 322.454 34.4466 322.454 36.1615C322.454 38.473 321.568 40.4116 319.796 41.9775C318.064 43.506 315.564 44.2703 312.297 44.2703Z" fill="#3038FF"/>
<path d="M338.449 0.147568V43.767H331.835V0.147568H338.449Z" fill="#3038FF"/>
<path d="M347.521 31.6878C347.521 29.339 348.111 27.1953 349.292 25.2567C350.513 23.3181 352.186 21.8082 354.312 20.727C356.438 19.6085 358.859 19.0493 361.576 19.0493C364.292 19.0493 366.694 19.6085 368.78 20.727C370.906 21.8082 372.54 23.3181 373.682 25.2567C374.823 27.1581 375.394 29.3017 375.394 31.6878C375.394 34.0738 374.823 36.2361 373.682 38.1748C372.54 40.0761 370.906 41.586 368.78 42.7045C366.694 43.8229 364.272 44.3821 361.516 44.3821C358.839 44.3821 356.438 43.8788 354.312 42.8722C352.186 41.8283 350.513 40.3557 349.292 38.4544C348.111 36.5157 347.521 34.2602 347.521 31.6878ZM354.194 31.7437C354.194 33.8687 354.883 35.6582 356.261 37.1122C357.639 38.5289 359.351 39.2373 361.398 39.2373C363.524 39.2373 365.257 38.5289 366.595 37.1122C367.973 35.6955 368.662 33.906 368.662 31.7437C368.662 29.5814 367.973 27.7918 366.595 26.3751C365.257 24.9212 363.524 24.1942 361.398 24.1942C359.351 24.1942 357.639 24.9398 356.261 26.4311C354.883 27.885 354.194 29.6559 354.194 31.7437Z" fill="#3038FF"/>
</svg>
